<?xml version="1.0" standalone="no"?>
<!DOCTYPE svg PUBLIC "-//W3C//DTD SVG 20010904//EN"
 "http://www.w3.org/TR/2001/REC-SVG-20010904/DTD/svg10.dtd">
<svg version="1.0" xmlns="http://www.w3.org/2000/svg"
 width="1960.000000pt" height="800.000000pt" viewBox="0 0 1960.000000 800.000000"
 preserveAspectRatio="xMidYMid meet">

<g transform="translate(0.000000,800.000000) scale(0.100000,-0.100000)"
fill="#000000" stroke="none">
<path d="M274 6560 c-17 -7 -22 -20 -27 -77 -12 -126 -8 -302 8 -336 8 -18 15
-48 17 -67 l3 -35 67 2 c37 1 78 7 90 14 20 11 20 13 5 24 -9 7 -17 17 -17 22
0 12 104 35 124 27 16 -6 29 -88 26 -159 -2 -27 -3 -772 -5 -1655 -1 -883 -5
-1649 -9 -1702 -7 -75 -13 -101 -27 -114 -15 -13 -19 -31 -19 -80 0 -88 -4
-94 -59 -94 -26 0 -52 -5 -59 -12 -7 -7 -28 -11 -47 -10 -45 3 -54 -17 -33
-74 15 -42 15 -43 -12 -66 l-27 -23 -7 -195 c-7 -180 -6 -195 10 -207 14 -11
116 -13 494 -11 l475 3 0 295 0 295 -150 5 -150 5 0 1305 0 1305 30 0 c28 0
30 -3 35 -48 4 -33 12 -52 27 -62 16 -11 23 -28 25 -61 3 -43 5 -47 38 -58 34
-11 35 -12 38 -71 3 -90 8 -102 42 -108 27 -6 30 -10 30 -42 0 -48 16 -75 44
-75 32 0 44 -17 48 -70 2 -36 7 -46 23 -48 38 -7 45 -22 45 -97 0 -67 2 -74
25 -89 23 -15 25 -23 25 -86 0 -76 2 -80 73 -94 26 -6 27 -8 27 -77 0 -62 3
-73 26 -94 14 -13 25 -34 26 -47 0 -53 8 -66 40 -73 46 -10 58 -23 58 -61 0
-25 8 -41 30 -61 28 -25 30 -31 30 -98 0 -71 0 -71 33 -86 28 -12 33 -20 37
-59 5 -41 8 -46 40 -56 32 -11 35 -16 40 -57 3 -26 8 -48 10 -50 3 -2 17 -11
32 -20 25 -15 27 -23 30 -89 l3 -72 34 -7 c41 -8 51 -22 51 -71 0 -29 6 -41
30 -58 23 -16 30 -29 30 -55 0 -26 7 -39 30 -55 27 -20 29 -25 32 -98 l3 -76
33 -7 c18 -4 36 -10 40 -14 4 -3 9 -39 12 -78 5 -66 7 -73 33 -85 25 -12 27
-17 27 -78 0 -76 12 -104 43 -104 33 0 47 -19 47 -62 0 -32 4 -40 28 -51 36
-15 42 -25 42 -69 0 -35 16 -62 42 -70 9 -3 12 -26 10 -76 -3 -70 -2 -72 23
-82 28 -11 353 -14 379 -4 15 6 16 189 16 1980 0 1661 2 1980 14 2016 8 24 17
95 21 158 3 63 11 120 17 127 6 7 21 13 34 13 25 0 31 14 36 80 l3 35 90 5 90
5 3 199 c2 153 -1 201 -10 208 -22 13 -942 10 -956 -4 -13 -13 -17 -297 -6
-432 6 -70 9 -77 31 -82 27 -7 142 14 158 28 6 5 1 11 -13 14 -51 14 -10 39
73 45 l50 4 5 -62 c3 -35 3 -662 0 -1395 -5 -1273 -6 -1333 -23 -1336 -35 -7
-47 17 -47 89 0 61 -3 72 -25 91 -19 17 -25 31 -25 64 0 41 -1 43 -43 56 -39
12 -42 16 -45 53 -2 29 -10 46 -30 62 -24 20 -28 31 -32 100 l-5 78 -32 3
c-44 4 -57 31 -50 99 6 54 5 55 -29 75 -33 19 -34 22 -34 83 0 78 -5 92 -41
111 -24 12 -29 21 -29 53 0 44 -12 58 -55 63 -28 3 -30 6 -33 50 -3 39 -8 51
-33 69 -28 20 -30 24 -28 86 2 73 -11 93 -62 93 -30 0 -39 15 -39 65 0 26 -7
39 -30 55 -25 18 -30 28 -28 56 3 40 -5 49 -52 61 -35 9 -35 10 -38 69 -3 84
-8 99 -37 112 -21 10 -25 19 -25 51 0 33 -5 43 -30 61 -23 16 -30 29 -30 55 0
48 -9 65 -34 65 -46 0 -59 22 -57 92 2 65 1 66 -33 86 -35 21 -35 21 -38 99
l-3 78 -30 3 c-48 6 -55 18 -55 93 0 66 -1 69 -30 84 -24 13 -30 22 -30 49 0
48 -8 65 -41 82 -24 12 -29 21 -29 53 0 44 -12 58 -55 63 l-30 3 -3 78 c-3 71
-5 78 -30 94 -37 24 -43 34 -37 62 8 31 -20 61 -55 61 -32 0 -40 15 -40 70 0
25 -5 40 -16 44 -24 9 -626 6 -650 -4z m96 -4360 c0 -5 -4 -10 -10 -10 -5 0
-10 5 -10 10 0 6 5 10 10 10 6 0 10 -4 10 -10z"/>
<path d="M4397 6555 c-20 -19 -26 -119 -37 -625 -11 -474 -13 -931 -4 -954 5
-13 27 -16 134 -16 90 0 131 4 138 13 5 6 10 57 10 112 0 55 5 120 11 145 5
25 13 101 16 170 5 78 12 133 21 147 8 13 14 49 14 83 0 65 12 100 35 100 30
0 47 32 45 84 -4 81 -2 85 35 100 31 13 35 19 35 53 0 50 14 63 66 63 53 0 77
21 69 61 -5 22 -2 31 18 44 20 13 52 15 193 13 l169 -3 3 -1811 2 -1812 -25
-16 c-23 -15 -25 -23 -25 -86 0 -80 -4 -84 -89 -93 -77 -9 -93 -28 -79 -91 9
-44 8 -51 -8 -63 -10 -7 -26 -13 -35 -13 -10 0 -25 -7 -33 -16 -14 -13 -16
-43 -14 -201 1 -143 5 -188 16 -199 19 -19 1241 -21 1260 -2 18 18 17 561 -1
577 -8 6 -76 12 -173 13 l-159 3 -2 1892 c-2 1700 -1 1893 13 1907 13 13 46
16 199 16 101 0 190 -3 199 -6 11 -4 16 -19 16 -50 0 -50 17 -64 73 -64 38 0
47 -12 47 -60 0 -30 22 -60 45 -60 23 0 35 -35 35 -105 0 -54 3 -67 18 -71 46
-15 47 -15 57 -180 6 -91 15 -168 23 -181 8 -14 14 -88 18 -210 4 -121 11
-191 18 -195 6 -4 68 -8 137 -8 102 0 129 3 139 15 14 16 14 6 -10 625 -5 135
-9 399 -10 588 0 217 -4 350 -10 363 -11 19 -36 19 -1305 19 -1121 0 -1296 -2
-1308 -15z"/>
<path d="M8224 6556 c-17 -13 -19 -30 -22 -199 -3 -154 -1 -191 13 -216 8 -17
13 -41 10 -54 -10 -38 12 -47 93 -39 86 10 111 26 64 43 -18 6 -32 15 -32 19
0 10 139 24 148 15 17 -17 17 0 14 -1907 l-2 -1676 -25 -30 c-21 -25 -25 -40
-25 -94 0 -74 -10 -88 -61 -88 -44 0 -96 -17 -102 -34 -3 -7 -1 -32 3 -56 10
-57 6 -66 -36 -73 -64 -11 -64 -10 -64 -223 l0 -194 26 -10 c32 -12 1193 -13
1212 -1 19 11 18 571 -1 583 -7 4 -74 8 -149 8 -96 0 -139 4 -144 12 -4 7 -7
363 -5 793 2 708 4 781 18 793 13 9 148 12 594 12 494 0 578 -2 589 -15 9 -11
11 -172 8 -701 l-3 -686 -32 -27 c-31 -26 -33 -31 -33 -92 0 -73 -10 -89 -56
-89 -40 0 -96 -19 -110 -37 -9 -11 -8 -23 3 -53 19 -47 12 -70 -20 -70 -13 0
-31 -6 -40 -13 -16 -11 -17 -33 -15 -217 l3 -205 609 -3 c441 -1 613 1 622 9
19 16 21 558 2 577 -8 8 -56 12 -149 12 -98 0 -139 4 -145 12 -5 8 -7 778 -4
1773 4 1381 8 1765 17 1782 7 12 16 46 21 75 6 41 11 54 27 56 33 7 45 23 45
61 0 54 13 61 106 61 65 0 83 3 88 16 12 31 7 379 -6 392 -9 9 -159 12 -612
12 -331 0 -607 -4 -614 -8 -9 -7 -12 -66 -10 -263 l3 -254 72 2 c40 1 82 7 94
14 l22 11 -24 19 -24 18 26 9 c13 6 47 12 74 13 l50 4 7 -55 c10 -91 9 -1516
-2 -1544 l-10 -26 -570 0 -571 0 -24 25 -25 24 0 571 c0 436 3 576 12 593 7
12 16 60 20 107 15 170 17 177 54 199 30 18 34 25 34 60 0 51 17 61 108 61 55
0 71 3 76 16 12 31 7 379 -6 392 -9 9 -157 12 -603 12 -494 0 -594 -2 -611
-14z m1020 -2082 c24 -9 19 -21 -10 -28 -29 -8 -50 5 -40 23 8 12 26 14 50 5z
m124 -11 c2 -8 -6 -13 -22 -13 -28 0 -43 15 -24 23 20 8 41 3 46 -10z m960 -1
c2 -7 -6 -12 -17 -12 -21 0 -27 11 -14 24 9 9 26 2 31 -12z m-298 -2 c-9 -6
-134 -9 -315 -8 l-300 3 295 5 c162 3 304 6 315 8 16 1 17 0 5 -8z m234 0 c-7
-7 -19 -7 -35 -1 -23 9 -22 10 11 10 23 1 31 -2 24 -9z"/>
<path d="M12507 6552 c-15 -16 -17 -42 -13 -213 4 -196 12 -277 26 -292 10
-11 152 1 171 14 12 8 11 12 -3 23 -10 7 -18 18 -18 24 0 12 105 36 125 29 20
-8 23 -97 13 -405 -9 -267 -3 -2052 8 -2346 3 -103 9 -155 19 -170 9 -13 17
-66 21 -146 6 -99 11 -130 25 -149 11 -13 19 -40 19 -61 0 -21 7 -43 15 -50 9
-7 15 -29 15 -55 0 -27 7 -51 20 -68 15 -19 20 -40 20 -90 0 -65 1 -68 46
-106 13 -11 15 -25 11 -70 -7 -64 -2 -76 36 -90 26 -10 27 -13 27 -84 0 -84 8
-97 61 -97 44 0 52 -9 59 -70 5 -44 6 -45 45 -50 56 -8 65 -16 65 -59 0 -49
14 -61 73 -61 78 0 87 -9 87 -90 0 -58 3 -71 19 -80 26 -13 1019 -14 1055 0
24 9 26 14 26 79 0 45 4 73 13 78 6 4 41 10 77 13 l65 5 3 45 c3 52 21 70 67
70 42 0 55 16 55 66 0 46 9 54 64 54 47 0 56 15 56 93 l0 68 35 15 35 14 0 74
c0 76 7 90 45 98 17 3 21 13 25 79 3 46 11 83 20 94 9 11 19 58 26 120 7 72
16 108 27 120 13 12 17 34 17 86 0 44 5 78 14 92 9 13 17 63 21 122 4 55 12
116 17 135 7 23 13 463 17 1282 7 1153 8 1248 24 1266 9 10 17 35 17 55 0 28
8 44 36 72 26 26 34 41 29 56 -4 13 0 28 11 40 14 16 31 19 93 19 42 0 82 4
89 9 19 11 21 376 3 394 -17 17 -967 23 -987 6 -11 -9 -14 -51 -13 -203 1
-105 4 -218 8 -251 l6 -60 70 4 c75 4 132 19 105 29 -55 18 -41 50 23 51 23 1
53 3 67 4 24 2 25 -1 30 -63 10 -126 0 -2692 -10 -2765 -6 -38 -15 -98 -19
-133 -5 -35 -14 -69 -20 -75 -6 -6 -11 -41 -11 -78 0 -59 -3 -72 -25 -95 -20
-22 -24 -34 -19 -59 4 -26 0 -38 -20 -60 -18 -20 -26 -39 -26 -65 0 -24 -7
-43 -20 -55 -16 -14 -20 -31 -20 -81 0 -87 -4 -94 -54 -94 -23 0 -52 -7 -65
-16 -21 -15 -22 -21 -16 -71 9 -72 -8 -93 -77 -93 -28 0 -59 -7 -73 -16 -22
-15 -24 -20 -18 -78 5 -60 5 -62 -21 -74 -35 -16 -408 -17 -437 -1 -17 9 -20
19 -18 75 1 38 -3 70 -9 76 -7 7 -40 14 -74 16 -35 2 -69 9 -75 14 -8 7 -13
36 -13 79 0 65 -2 70 -26 79 -14 6 -38 10 -53 10 -42 0 -51 17 -51 92 0 63 -2
69 -24 79 -26 12 -36 35 -36 86 0 19 -7 36 -16 41 -9 5 -18 28 -21 53 -3 24
-12 52 -20 61 -10 11 -19 54 -24 115 -10 106 -12 127 -29 248 -7 55 -10 476
-8 1340 3 1181 4 1262 21 1285 9 13 17 41 17 62 0 29 6 41 30 58 23 16 30 29
30 55 0 52 20 65 104 65 114 0 110 -7 103 211 -5 159 -8 185 -23 196 -14 10
-145 13 -609 13 -561 0 -593 -1 -608 -18z"/>
<path d="M16792 6558 c-13 -13 -16 -353 -4 -458 l7 -55 60 2 c118 5 151 18
100 41 -14 6 -25 16 -25 21 0 14 132 31 148 18 10 -8 12 -360 10 -1797 l-3
-1787 -33 -38 c-31 -35 -33 -41 -27 -85 10 -71 -2 -86 -75 -93 -94 -10 -103
-18 -94 -83 7 -61 -4 -84 -41 -84 -13 0 -26 -7 -29 -16 -3 -9 -6 -103 -6 -210
0 -192 0 -194 23 -199 12 -3 396 -5 853 -3 713 3 833 5 849 18 14 11 16 24 12
66 -3 28 -2 56 2 62 13 22 64 32 157 32 116 0 134 8 134 58 0 49 14 62 68 62
63 0 82 13 82 58 0 50 14 62 70 62 25 0 51 5 58 12 7 7 12 40 12 80 0 65 1 69
28 81 38 17 42 24 42 97 0 70 10 90 46 90 28 0 34 17 34 100 0 46 5 71 14 79
9 8 16 46 21 114 5 67 12 108 22 119 19 22 23 399 4 422 -7 8 -14 52 -16 98
-8 144 -17 192 -40 196 -34 7 -45 23 -45 67 0 33 -5 46 -22 58 -20 13 -23 22
-21 77 3 84 -7 100 -60 100 -24 0 -48 5 -55 12 -7 7 -12 40 -12 80 0 75 -10
88 -69 88 -49 0 -64 24 -56 87 9 76 -7 93 -89 93 -75 0 -89 9 -88 51 1 41 -10
56 -51 65 -18 3 -38 11 -44 16 -16 13 -17 84 -1 94 6 4 39 10 72 13 l61 6 3
75 c2 41 7 79 12 84 5 5 37 12 72 15 l63 6 5 47 c3 26 8 49 10 51 3 2 17 11
33 20 22 14 27 25 27 56 0 30 5 42 25 55 23 15 25 23 25 85 0 56 4 74 23 97
22 28 22 33 21 301 0 252 -2 274 -19 293 -15 17 -19 34 -17 89 2 55 -1 72 -18
93 -11 15 -20 41 -20 59 0 20 -9 42 -22 56 -14 15 -24 42 -28 71 l-5 47 -45 3
c-65 5 -71 14 -68 94 2 78 -4 88 -63 88 -45 0 -59 15 -59 62 0 52 -19 58 -193
58 -165 0 -193 9 -190 57 5 59 24 58 -797 61 -581 2 -748 0 -758 -10z m1362
-418 c22 -8 26 -16 26 -48 0 -49 14 -62 66 -62 49 0 57 -8 64 -70 4 -35 10
-46 25 -48 37 -7 45 -22 45 -90 0 -54 4 -70 23 -90 l22 -24 -1 -363 c-2 -355
-2 -364 -23 -391 -14 -17 -21 -41 -21 -68 0 -30 -5 -44 -19 -53 -14 -9 -21
-26 -23 -60 l-3 -48 -51 -6 c-29 -4 -57 -10 -63 -13 -6 -4 -11 -37 -11 -75 0
-43 -5 -72 -12 -78 -7 -6 -112 -13 -234 -17 -190 -6 -223 -5 -233 8 -10 12
-12 159 -9 673 3 607 4 660 21 683 9 13 17 43 17 65 0 47 5 55 43 75 24 12 28
19 24 45 -9 58 9 65 164 65 76 0 149 -4 163 -10z m266 -2210 c11 -7 15 -28 15
-77 0 -73 -4 -67 75 -103 9 -4 17 -26 20 -51 4 -33 11 -46 29 -55 31 -16 41
-34 35 -60 -3 -12 1 -35 9 -50 35 -69 28 -665 -8 -718 -8 -11 -15 -39 -15 -61
0 -46 -6 -57 -37 -74 -20 -10 -23 -19 -23 -79 0 -40 -5 -73 -12 -80 -7 -7 -33
-12 -59 -12 -68 0 -83 -18 -75 -91 11 -94 26 -90 -337 -87 l-312 3 -3 790 c-1
435 0 796 3 803 6 15 671 18 695 2z"/>
</g>
</svg>
