<?xml version="1.0" standalone="no"?>
<!DOCTYPE svg PUBLIC "-//W3C//DTD SVG 20010904//EN"
 "http://www.w3.org/TR/2001/REC-SVG-20010904/DTD/svg10.dtd">
<svg version="1.0" xmlns="http://www.w3.org/2000/svg"
 width="360.000000pt" height="360.000000pt" viewBox="0 0 360.000000 360.000000"
 preserveAspectRatio="xMidYMid meet">

<g transform="translate(0.000000,360.000000) scale(0.100000,-0.100000)"
fill="#000000" stroke="none">
<path d="M1080 3220 c-8 -6 -33 -7 -55 -4 -32 4 -46 1 -65 -15 l-25 -21 33 16
c26 13 39 14 64 5 41 -15 427 -244 427 -254 1 -4 -7 -4 -16 2 -13 7 -23 5 -36
-7 -16 -14 -20 -14 -29 -2 -8 12 -9 11 -4 -3 3 -10 6 -23 6 -28 0 -5 9 0 21
12 14 14 27 18 42 13 31 -9 47 -24 47 -42 0 -12 -4 -11 -16 6 -32 46 -91 13
-65 -36 19 -36 70 -38 72 -3 0 12 2 13 6 2 3 -8 -2 -20 -12 -27 -9 -7 -14 -17
-10 -23 3 -6 1 -11 -4 -11 -6 0 -11 5 -11 10 0 6 -6 10 -14 10 -8 0 -21 6 -28
13 -7 6 -18 13 -24 14 -6 1 -39 18 -72 39 -66 39 -79 61 -68 114 5 29 2 31
-102 90 -59 33 -115 60 -124 60 -36 0 -66 -45 -102 -150 -20 -58 -36 -110 -36
-115 0 -6 26 -21 58 -35 37 -16 80 -47 123 -90 52 -51 69 -62 78 -52 7 6 25
12 42 12 20 0 28 4 23 12 -5 8 0 9 17 5 13 -4 29 -7 34 -8 6 0 -11 -6 -36 -13
-42 -11 -169 -83 -169 -96 0 -3 12 -13 28 -22 15 -9 53 -44 85 -77 l57 -60 35
20 c54 32 194 62 180 39 -3 -6 4 -10 17 -10 22 0 22 0 3 14 -11 7 -29 16 -40
19 -16 4 -14 5 7 6 15 0 29 -3 33 -9 3 -5 12 -7 20 -4 8 3 19 3 26 -1 6 -4 29
-9 51 -10 46 -4 125 -52 183 -110 55 -56 69 -85 60 -126 -15 -73 -120 -386
-135 -405 -6 -6 -7 -13 -4 -16 3 -4 -4 -25 -16 -48 -23 -46 -61 -68 -71 -41
-3 9 -9 -42 -12 -114 -4 -111 -10 -142 -35 -212 -16 -45 -28 -84 -26 -86 3 -3
-9 -3 -25 -1 -26 3 -32 0 -37 -23 -5 -19 -2 -30 11 -39 12 -9 16 -21 12 -36
-3 -13 -13 -52 -22 -88 -9 -36 -39 -135 -66 -220 -27 -85 -49 -162 -49 -170 0
-13 78 203 130 360 22 66 111 326 215 625 133 384 166 479 176 513 6 19 13 32
15 29 3 -2 -2 -24 -11 -48 -9 -24 -27 -82 -41 -129 -22 -75 -32 -105 -59 -185
-4 -12 2 -7 14 10 11 17 21 39 21 50 0 17 2 17 10 5 8 -12 10 -10 10 10 0 15
4 30 10 36 5 5 11 18 13 29 2 11 11 38 21 60 15 33 124 345 143 409 5 16 3 17
-15 7 -30 -16 -32 -15 -32 29 0 23 -7 54 -15 70 -15 30 -15 30 10 20 17 -6 25
-6 25 1 0 6 5 7 10 4 18 -11 11 11 -9 29 -17 15 -24 16 -53 6 -32 -12 -38 -9
-148 56 -134 79 -314 189 -350 213 -14 9 -51 32 -82 51 -32 19 -58 38 -58 43
0 5 11 2 25 -7 14 -9 29 -14 34 -12 5 3 14 -1 21 -9 6 -7 18 -11 26 -8 11 4 7
10 -16 24 -35 22 -44 24 -34 7 4 -7 3 -8 -5 -4 -6 4 -9 11 -6 16 5 8 -193 130
-211 130 -5 0 -16 -5 -24 -10z m404 -1914 c-3 -15 -8 -25 -11 -23 -2 3 -1 17
3 31 3 15 8 25 11 23 2 -3 1 -17 -3 -31z"/>
<path d="M1355 2910 c3 -5 8 -10 11 -10 2 0 4 5 4 10 0 6 -5 10 -11 10 -5 0
-7 -4 -4 -10z"/>
<path d="M1366 2875 c4 -8 10 -15 15 -15 4 0 6 7 3 15 -4 8 -10 15 -15 15 -4
0 -6 -7 -3 -15z"/>
<path d="M2975 2776 c-60 -18 -103 -35 -95 -39 8 -3 0 -6 -18 -6 -21 -1 -31
-5 -27 -12 4 -6 13 -8 21 -5 8 3 24 1 36 -5 22 -9 22 -9 2 -6 -12 3 -28 1 -35
-4 -9 -6 -1 -9 26 -10 30 0 35 -2 20 -8 -11 -5 -27 -6 -35 -4 -13 4 -13 4 0
-6 13 -9 12 -11 -5 -11 -20 0 -176 -48 -162 -49 9 -1 175 42 346 90 58 16 116
29 130 29 25 1 25 1 6 12 -11 6 -27 19 -35 28 -14 15 -54 41 -62 39 -2 0 -52
-15 -113 -33z"/>
<path d="M932 2768 c-16 -16 -15 -23 4 -42 12 -12 20 -13 35 -6 24 14 24 36 0
50 -24 13 -24 13 -39 -2z"/>
<path d="M2668 2603 c7 -3 16 -2 19 1 4 3 -2 6 -13 5 -11 0 -14 -3 -6 -6z"/>
<path d="M2598 2583 c7 -3 16 -2 19 1 4 3 -2 6 -13 5 -11 0 -14 -3 -6 -6z"/>
<path d="M2510 2515 c-74 -24 -129 -44 -121 -44 8 -1 23 -9 34 -18 19 -17 19
-17 12 7 l-7 25 21 -23 c12 -12 26 -20 31 -17 5 3 1 -13 -9 -36 -16 -35 -17
-44 -6 -56 44 -44 151 21 169 103 9 40 -12 59 -55 50 -18 -3 -28 -2 -24 4 3 6
22 10 40 10 72 0 69 -87 -4 -153 -24 -21 -35 -38 -28 -41 9 -3 9 -7 -1 -13
-10 -7 -8 -13 7 -27 11 -10 17 -26 15 -39 -3 -12 16 34 42 103 54 147 63 188
43 201 -17 11 -1 15 -159 -36z m25 -25 c-3 -5 -16 -15 -28 -21 -19 -9 -19 -8
3 10 28 23 34 26 25 11z m58 -187 c-3 -7 -10 -10 -16 -6 -8 5 -8 8 0 10 7 3 9
12 6 21 -4 14 -3 14 5 3 6 -8 8 -20 5 -28z"/>
<path d="M2153 2498 c4 -10 2 -17 -5 -15 -8 1 -74 -179 -134 -367 -5 -15 -3
-18 10 -13 9 4 16 1 16 -6 1 -7 8 0 16 16 8 15 12 32 9 37 -3 6 -1 10 4 10 21
0 11 -58 -19 -114 -16 -31 -29 -60 -29 -64 0 -13 -41 -14 -41 0 -1 23 -30 -66
-30 -92 0 -20 2 -22 10 -10 9 13 10 13 10 0 1 -9 5 -6 10 8 9 22 30 31 30 12
0 -15 -23 -63 -42 -89 -22 -29 -23 -41 -3 -41 9 0 12 -6 9 -17 -5 -15 -4 -15
6 1 10 15 9 20 -1 27 -12 7 -7 12 11 11 3 0 45 115 94 256 49 142 98 284 109
316 11 32 32 73 46 89 l26 31 -26 -17 c-26 -17 -27 -17 -59 15 -19 19 -30 26
-27 16z m-143 -563 c0 -8 -4 -15 -9 -15 -5 0 -11 7 -15 15 -3 9 0 15 9 15 8 0
15 -7 15 -15z"/>
<path d="M2305 2418 c-43 -37 -64 -79 -57 -114 3 -19 10 -24 36 -24 64 0 141
78 134 137 -3 24 -8 28 -40 31 -29 3 -43 -3 -73 -30z"/>
<path d="M883 2401 c-162 -41 -198 -274 -66 -421 58 -64 110 -92 177 -92 140
-1 230 131 192 281 -41 160 -177 263 -303 232z m173 -82 c42 -19 85 -66 99
-108 5 -17 4 -21 -5 -16 -9 6 -9 3 -1 -13 30 -55 0 -141 -67 -192 -43 -33 -50
-35 -120 -34 -53 0 -78 4 -86 15 -6 8 -20 14 -31 12 -11 -1 -15 0 -9 3 7 3 -3
19 -23 39 -22 22 -33 41 -29 51 3 8 2 12 -3 9 -14 -8 -18 43 -7 90 4 22 9 47
10 56 2 16 80 91 99 96 7 1 28 7 47 11 41 11 69 7 126 -19z"/>
<path d="M2476 2279 c-54 -32 -86 -78 -86 -123 0 -61 78 -51 138 18 27 31 33
45 30 74 -3 33 -6 37 -33 39 -16 2 -38 -2 -49 -8z"/>
<path d="M2360 2256 c0 -18 45 -23 55 -6 3 6 -1 7 -10 4 -8 -4 -22 -1 -30 6
-12 10 -15 9 -15 -4z"/>
<path d="M1434 2205 c-29 -29 -26 -58 9 -88 37 -32 97 -2 97 48 0 27 -35 65
-61 65 -11 0 -31 -11 -45 -25z"/>
<path d="M2244 2208 c-45 -32 -76 -81 -72 -115 3 -25 8 -28 41 -31 34 -3 44 2
82 40 24 24 47 56 50 71 14 56 -44 76 -101 35z"/>
<path d="M596 2051 c-4 -7 -5 -15 -2 -18 9 -9 19 4 14 18 -4 11 -6 11 -12 0z"/>
<path d="M594 2005 c-13 -8 -28 -39 -39 -77 -9 -34 -20 -69 -22 -77 -3 -9 7
-1 23 16 36 41 102 65 144 53 18 -5 30 -5 30 1 0 5 -4 9 -9 9 -5 0 -24 20 -42
45 -36 48 -53 53 -85 30z"/>
<path d="M1224 1943 c-34 -46 -37 -53 -19 -47 8 4 27 -2 43 -12 15 -10 30 -18
34 -16 4 1 10 -8 14 -21 4 -12 15 -34 25 -49 22 -30 26 -118 8 -165 -26 -70
-143 -142 -196 -122 -13 5 -22 5 -19 0 7 -11 -71 16 -96 34 -34 23 -109 149
-78 130 6 -4 6 3 0 21 -12 30 5 93 30 108 12 8 11 11 -5 17 -11 4 -33 8 -49 8
l-29 1 6 -69 c21 -248 275 -398 426 -251 109 106 88 306 -46 433 l-29 27 -20
-27z"/>
<path d="M2889 1774 c-5 -15 -7 -29 -4 -32 3 -3 5 0 5 7 0 7 3 10 8 8 4 -3 7
6 7 19 0 31 -3 30 -16 -2z"/>
<path d="M471 1657 c-2 -46 50 -138 114 -203 76 -77 152 -109 233 -100 44 5
102 25 120 42 5 3 -91 122 -99 123 -4 1 -9 -9 -13 -22 -6 -25 -9 -26 -123 -32
-54 -3 -83 0 -83 7 0 5 -6 8 -13 5 -31 -12 -107 92 -127 173 -7 33 -8 33 -9 7z"/>
<path d="M2845 1660 c-3 -11 -13 -20 -21 -20 -8 0 -14 -7 -14 -16 0 -8 5 -12
10 -9 6 3 10 -1 10 -10 0 -9 -5 -13 -10 -10 -11 7 -1028 -1003 -1048 -1040 -8
-15 -6 -22 6 -33 15 -11 14 -12 -6 -2 -29 14 -58 5 -65 -21 -4 -16 -2 -19 14
-14 10 4 31 8 46 11 38 7 138 32 193 49 25 7 126 34 225 60 306 79 356 100
390 165 9 17 67 184 130 372 62 189 117 352 121 362 5 14 4 17 -5 12 -9 -6
-10 -4 -3 10 26 49 42 95 37 105 -4 5 -2 16 5 24 7 8 7 15 1 19 -5 4 -12 -3
-16 -14z"/>
<path d="M355 1335 c-41 -115 -43 -168 -9 -206 10 -11 106 -72 214 -136 107
-63 229 -135 270 -160 41 -25 89 -54 105 -63 17 -10 73 -43 126 -74 111 -65
157 -73 185 -31 9 14 49 121 88 237 71 210 72 214 65 286 -6 66 -24 132 -36
132 -2 0 -13 -4 -23 -10 -10 -5 -49 -13 -86 -17 -43 -5 -69 -13 -72 -22 -3 -8
0 -11 6 -7 15 9 70 -41 92 -85 24 -46 27 -143 6 -193 -20 -48 -73 -103 -112
-118 -19 -6 -34 -16 -34 -20 0 -16 -89 -8 -143 13 -72 27 -131 86 -146 143
-15 61 -14 126 2 126 29 1 -20 19 -68 25 -27 4 -70 15 -94 26 -24 10 -48 16
-55 12 -6 -3 -8 -3 -4 2 10 11 -50 47 -64 39 -6 -4 -8 -3 -5 4 4 5 -15 28 -42
51 -26 22 -65 65 -86 96 -21 30 -39 55 -40 55 -1 0 -19 -47 -40 -105z m359
-181 c23 -10 26 -13 11 -13 -11 0 -36 9 -55 20 -38 21 -12 18 44 -7z m31 -35
c11 -16 1 -19 -13 -3 -7 8 -8 14 -3 14 5 0 13 -5 16 -11z"/>
<path d="M1301 744 c0 -11 3 -14 6 -6 3 7 2 16 -1 19 -3 4 -6 -2 -5 -13z"/>
<path d="M1285 710 c-3 -5 -1 -10 4 -10 6 0 11 5 11 10 0 6 -2 10 -4 10 -3 0
-8 -4 -11 -10z"/>
<path d="M1276 673 c-6 -14 -5 -15 5 -6 7 7 10 15 7 18 -3 3 -9 -2 -12 -12z"/>
<path d="M1314 634 c-18 -14 -18 -15 4 -4 12 6 22 13 22 15 0 8 -5 6 -26 -11z"/>
<path d="M1586 524 c-14 -37 2 -81 20 -53 5 8 3 9 -6 4 -10 -6 -12 0 -7 28 6
39 3 48 -7 21z"/>
<path d="M1529 506 c27 -29 33 -32 25 -13 -2 7 -14 19 -27 26 -21 13 -21 12 2
-13z"/>
</g>
</svg>
